<?xml version="1.0" encoding="utf-8"?>
<!-- Generator: Adobe Illustrator 16.0.0, SVG Export Plug-In . SVG Version: 6.00 Build 0)  -->
<!DOCTYPE svg PUBLIC "-//W3C//DTD SVG 1.1//EN" "http://www.w3.org/Graphics/SVG/1.1/DTD/svg11.dtd">
<svg version="1.1" id="Layer_1" xmlns="http://www.w3.org/2000/svg" xmlns:xlink="http://www.w3.org/1999/xlink" x="0px" y="0px"
	 width="512px" height="512px" viewBox="0 0 512 512" enable-background="new 0 0 512 512" xml:space="preserve">
<path fill="#FFD836" d="M377.139,259.492c0,66.637-54.02,120.658-120.658,120.658c-66.637,0-120.658-54.021-120.658-120.658
	c0-66.637,54.02-120.658,120.658-120.658C323.118,138.834,377.139,192.854,377.139,259.492z"/>
<path fill="#FFD836" d="M228.352,100.669l30.27-77.906l25.979,77.906H228.352z"/>
<path fill="#FFD836" d="M228.352,411.341l30.27,77.896l25.979-77.896H228.352z"/>
<path fill="#FFD836" d="M100.659,287.602l-77.895-30.291l77.895-25.958V287.602z"/>
<path fill="#FFD836" d="M411.361,287.602l77.875-30.291l-77.875-25.958V287.602z"/>
<path fill="#FFD836" d="M126.597,165.703L92.938,89.231l73.442,36.7L126.597,165.703z"/>
<path fill="#FFD836" d="M346.275,385.423l76.524,33.64l-36.741-73.442L346.275,385.423z"/>
<path fill="#FFD836" d="M168.499,388.199l-76.493,33.639l36.72-73.441L168.499,388.199z"/>
<path fill="#FFD836" d="M388.199,168.499l33.618-76.513l-73.4,36.751L388.199,168.499z"/>
</svg>
